<svg width="28" height="28" fill="none" xmlns="http://www.w3.org/2000/svg"><path d="M16.333 13.428h2.824a1.168 1.168 0 0 0 .828-.338l5.343-5.343a1.166 1.166 0 0 0 0-1.657l-2.823-2.823a1.166 1.166 0 0 0-1.657 0L15.505 8.61c-.213.224-.334.52-.338.828v2.824a1.167 1.167 0 0 0 1.166 1.166Zm1.167-3.5 4.177-4.176 1.166 1.166-4.176 4.177H17.5V9.928Zm7 2.334a1.166 1.166 0 0 0-1.167 1.166v8.167a1.167 1.167 0 0 1-1.166 1.167H5.833a1.167 1.167 0 0 1-1.166-1.167V10.383l6.86 6.872a3.499 3.499 0 0 0 4.981 0 1.166 1.166 0 1 0-1.668-1.633 1.167 1.167 0 0 1-1.633 0L6.312 8.738h5.355a1.167 1.167 0 0 0 0-2.333H5.833a3.5 3.5 0 0 0-3.5 3.5v11.667a3.5 3.5 0 0 0 3.5 3.5h16.334a3.5 3.5 0 0 0 3.5-3.5v-8.167a1.167 1.167 0 0 0-1.167-1.167v.024Z" fill="#275BA8"/></svg>