<svg width="28" height="28" fill="none" xmlns="http://www.w3.org/2000/svg"><path d="M14 2.333a11.667 11.667 0 0 0-8.575 19.554 11.667 11.667 0 0 0 17.15 0A11.666 11.666 0 0 0 14 2.333Zm0 21a9.334 9.334 0 0 1-6.475-2.625 7 7 0 0 1 12.95 0A9.334 9.334 0 0 1 14 23.333Zm-2.333-11.666a2.333 2.333 0 1 1 4.666 0 2.333 2.333 0 0 1-4.666 0Zm10.395 7a9.333 9.333 0 0 0-4.562-3.944 4.667 4.667 0 1 0-7 0 9.333 9.333 0 0 0-4.562 3.944A9.24 9.24 0 0 1 4.667 14a9.333 9.333 0 0 1 18.666 0 9.24 9.24 0 0 1-1.271 4.667Z" fill="#275BA8"/></svg>